<mxfile host="app.diagrams.net" modified="2023-07-31T00:59:57.453Z" agent="Mozilla/5.0 (Windows NT 10.0; Win64; x64) AppleWebKit/537.36 (KHTML, like Gecko) Chrome/115.0.0.0 Safari/537.36" version="21.6.3" etag="UDc2HTXSFU3zn0qCCOY8" type="github">
  <diagram name="PÃ¡gina-1" id="RQVJ0QOs5TOeKWHga8o8">
    <mxGraphModel>
      <root>
        <mxCell id="0" />
        <mxCell id="1" parent="0" />
      </root>
    </mxGraphModel>
  </diagram>
</mxfile>
